<svg width="541" height="553" viewBox="0 0 541 553" fill="none" xmlns="http://www.w3.org/2000/svg">
<path d="M130.761 548V533.455H132.523V546.438H139.284V548H130.761ZM170.918 540.727C170.918 542.261 170.641 543.587 170.087 544.705C169.533 545.822 168.773 546.684 167.807 547.29C166.841 547.896 165.738 548.199 164.497 548.199C163.257 548.199 162.153 547.896 161.188 547.29C160.222 546.684 159.462 545.822 158.908 544.705C158.354 543.587 158.077 542.261 158.077 540.727C158.077 539.193 158.354 537.867 158.908 536.75C159.462 535.633 160.222 534.771 161.188 534.165C162.153 533.559 163.257 533.256 164.497 533.256C165.738 533.256 166.841 533.559 167.807 534.165C168.773 534.771 169.533 535.633 170.087 536.75C170.641 537.867 170.918 539.193 170.918 540.727ZM169.213 540.727C169.213 539.468 169.002 538.405 168.581 537.538C168.164 536.672 167.599 536.016 166.884 535.571C166.173 535.126 165.378 534.903 164.497 534.903C163.617 534.903 162.819 535.126 162.104 535.571C161.394 536.016 160.828 536.672 160.406 537.538C159.99 538.405 159.781 539.468 159.781 540.727C159.781 541.987 159.99 543.05 160.406 543.916C160.828 544.783 161.394 545.438 162.104 545.884C162.819 546.329 163.617 546.551 164.497 546.551C165.378 546.551 166.173 546.329 166.884 545.884C167.599 545.438 168.164 544.783 168.581 543.916C169.002 543.05 169.213 541.987 169.213 540.727ZM202.784 538H201.023C200.918 537.493 200.736 537.048 200.476 536.665C200.22 536.281 199.907 535.959 199.538 535.699C199.174 535.434 198.769 535.235 198.324 535.102C197.879 534.97 197.415 534.903 196.932 534.903C196.051 534.903 195.253 535.126 194.538 535.571C193.828 536.016 193.262 536.672 192.841 537.538C192.424 538.405 192.216 539.468 192.216 540.727C192.216 541.987 192.424 543.05 192.841 543.916C193.262 544.783 193.828 545.438 194.538 545.884C195.253 546.329 196.051 546.551 196.932 546.551C197.415 546.551 197.879 546.485 198.324 546.352C198.769 546.22 199.174 546.023 199.538 545.763C199.907 545.498 200.22 545.173 200.476 544.79C200.736 544.402 200.918 543.956 201.023 543.455H202.784C202.651 544.198 202.41 544.863 202.059 545.45C201.709 546.037 201.273 546.537 200.753 546.949C200.232 547.356 199.647 547.666 198.998 547.879C198.354 548.092 197.666 548.199 196.932 548.199C195.691 548.199 194.588 547.896 193.622 547.29C192.656 546.684 191.896 545.822 191.342 544.705C190.788 543.587 190.511 542.261 190.511 540.727C190.511 539.193 190.788 537.867 191.342 536.75C191.896 535.633 192.656 534.771 193.622 534.165C194.588 533.559 195.691 533.256 196.932 533.256C197.666 533.256 198.354 533.362 198.998 533.575C199.647 533.788 200.232 534.101 200.753 534.513C201.273 534.92 201.709 535.417 202.059 536.004C202.41 536.587 202.651 537.252 202.784 538ZM223.427 548H221.58L226.921 533.455H228.739L234.08 548H232.234L227.887 535.756H227.773L223.427 548ZM224.109 542.318H231.552V543.881H224.109V542.318ZM253.546 548V533.455H255.307V546.438H262.068V548H253.546ZM304.821 548V533.455H313.542V535.017H306.582V539.932H312.889V541.494H306.582V548H304.821ZM346.032 540.727C346.032 542.261 345.755 543.587 345.201 544.705C344.647 545.822 343.887 546.684 342.921 547.29C341.955 547.896 340.852 548.199 339.611 548.199C338.371 548.199 337.268 547.896 336.302 547.29C335.336 546.684 334.576 545.822 334.022 544.705C333.468 543.587 333.191 542.261 333.191 540.727C333.191 539.193 333.468 537.867 334.022 536.75C334.576 535.633 335.336 534.771 336.302 534.165C337.268 533.559 338.371 533.256 339.611 533.256C340.852 533.256 341.955 533.559 342.921 534.165C343.887 534.771 344.647 535.633 345.201 536.75C345.755 537.867 346.032 539.193 346.032 540.727ZM344.327 540.727C344.327 539.468 344.117 538.405 343.695 537.538C343.278 536.672 342.713 536.016 341.998 535.571C341.287 535.126 340.492 534.903 339.611 534.903C338.731 534.903 337.933 535.126 337.218 535.571C336.508 536.016 335.942 536.672 335.52 537.538C335.104 538.405 334.895 539.468 334.895 540.727C334.895 541.987 335.104 543.05 335.52 543.916C335.942 544.783 336.508 545.438 337.218 545.884C337.933 546.329 338.731 546.551 339.611 546.551C340.492 546.551 341.287 546.329 341.998 545.884C342.713 545.438 343.278 544.783 343.695 543.916C344.117 543.05 344.327 541.987 344.327 540.727ZM378.466 540.727C378.466 542.261 378.189 543.587 377.635 544.705C377.081 545.822 376.321 546.684 375.355 547.29C374.389 547.896 373.286 548.199 372.046 548.199C370.805 548.199 369.702 547.896 368.736 547.29C367.77 546.684 367.01 545.822 366.456 544.705C365.902 543.587 365.625 542.261 365.625 540.727C365.625 539.193 365.902 537.867 366.456 536.75C367.01 535.633 367.77 534.771 368.736 534.165C369.702 533.559 370.805 533.256 372.046 533.256C373.286 533.256 374.389 533.559 375.355 534.165C376.321 534.771 377.081 535.633 377.635 536.75C378.189 537.867 378.466 539.193 378.466 540.727ZM376.762 540.727C376.762 539.468 376.551 538.405 376.129 537.538C375.713 536.672 375.147 536.016 374.432 535.571C373.722 535.126 372.926 534.903 372.046 534.903C371.165 534.903 370.367 535.126 369.652 535.571C368.942 536.016 368.376 536.672 367.955 537.538C367.538 538.405 367.33 539.468 367.33 540.727C367.33 541.987 367.538 543.05 367.955 543.916C368.376 544.783 368.942 545.438 369.652 545.884C370.367 546.329 371.165 546.551 372.046 546.551C372.926 546.551 373.722 546.329 374.432 545.884C375.147 545.438 375.713 544.783 376.129 543.916C376.551 543.05 376.762 541.987 376.762 540.727ZM403.116 548H398.628V533.455H403.315C404.726 533.455 405.934 533.746 406.937 534.328C407.941 534.906 408.711 535.737 409.246 536.821C409.781 537.901 410.048 539.193 410.048 540.699C410.048 542.214 409.778 543.518 409.239 544.612C408.699 545.701 407.913 546.539 406.881 547.126C405.848 547.709 404.594 548 403.116 548ZM400.389 546.438H403.003C404.205 546.438 405.202 546.205 405.993 545.741C406.784 545.277 407.373 544.617 407.761 543.76C408.15 542.903 408.344 541.883 408.344 540.699C408.344 539.525 408.152 538.514 407.768 537.666C407.385 536.814 406.812 536.161 406.05 535.706C405.287 535.247 404.338 535.017 403.202 535.017H400.389V546.438Z" fill="#A27400"/>
<path d="M3.645 505V472.15H9.63L24.345 495.73H24.435V472.15H30.015V505H24.03L9.36 481.42H9.27V505H3.645ZM54.4521 505L66.1071 472.15H73.7121L85.3221 505H79.1571L69.9321 476.92H69.8421L60.6171 505H54.4521ZM60.8421 497.125V492.13H78.9771V497.125H60.8421ZM124.458 505.45C120.738 505.45 117.543 504.775 114.873 503.425C112.203 502.075 110.148 500.14 108.708 497.62C107.298 495.1 106.593 492.085 106.593 488.575C106.593 485.065 107.298 482.05 108.708 479.53C110.118 477.01 112.128 475.075 114.738 473.725C117.378 472.375 120.513 471.7 124.143 471.7C126.153 471.7 128.058 471.925 129.858 472.375C131.658 472.795 133.263 473.44 134.673 474.31L133.368 479.035C132.108 478.285 130.668 477.715 129.048 477.325C127.428 476.905 125.793 476.695 124.143 476.695C121.713 476.695 119.628 477.16 117.888 478.09C116.178 479.02 114.858 480.37 113.928 482.14C113.028 483.91 112.578 486.055 112.578 488.575C112.578 491.095 113.028 493.24 113.928 495.01C114.858 496.78 116.208 498.13 117.978 499.06C119.778 499.99 121.938 500.455 124.458 500.455C125.778 500.455 127.053 500.335 128.283 500.095C129.513 499.825 130.623 499.435 131.613 498.925L130.848 500.725V490.6H120.408V485.875H136.428V502.885C134.838 503.695 132.978 504.325 130.848 504.775C128.748 505.225 126.618 505.45 124.458 505.45ZM178.568 505.45C175.118 505.45 172.118 504.76 169.568 503.38C167.048 502 165.098 500.05 163.718 497.53C162.338 495.01 161.648 492.025 161.648 488.575C161.648 485.125 162.338 482.14 163.718 479.62C165.098 477.1 167.048 475.15 169.568 473.77C172.118 472.39 175.118 471.7 178.568 471.7C182.048 471.7 185.048 472.39 187.568 473.77C190.088 475.15 192.038 477.1 193.418 479.62C194.798 482.14 195.488 485.125 195.488 488.575C195.488 492.025 194.798 495.01 193.418 497.53C192.038 500.05 190.088 502 187.568 503.38C185.048 504.76 182.048 505.45 178.568 505.45ZM178.568 500.455C180.878 500.455 182.858 499.975 184.508 499.015C186.188 498.055 187.478 496.69 188.378 494.92C189.278 493.15 189.728 491.035 189.728 488.575C189.728 486.115 189.278 484 188.378 482.23C187.478 480.46 186.188 479.095 184.508 478.135C182.858 477.175 180.878 476.695 178.568 476.695C176.228 476.695 174.218 477.175 172.538 478.135C170.888 479.095 169.613 480.46 168.713 482.23C167.843 484 167.408 486.115 167.408 488.575C167.408 491.035 167.843 493.15 168.713 494.92C169.613 496.69 170.888 498.055 172.538 499.015C174.218 499.975 176.228 500.455 178.568 500.455ZM227.809 505V492.85L215.524 472.15H221.914L230.689 487.855H230.779L239.554 472.15H245.899L233.659 492.85V505H227.809ZM262.586 505L274.241 472.15H281.846L293.456 505H287.291L278.066 476.92H277.976L268.751 505H262.586ZM268.976 497.125V492.13H287.111V497.125H268.976ZM317.717 505L321.767 472.15H328.652L335.627 494.695H335.717L342.737 472.15H349.622L353.672 505H347.957L345.617 480.475H345.527L338.597 501.4H332.792L325.862 480.475H325.772L323.432 505H317.717ZM379.492 505V472.15H401.452V477.01H385.117V485.47H400.552V490.24H385.117V500.14H401.452V505H379.492ZM438.128 505.45C435.968 505.45 433.838 505.225 431.738 504.775C429.668 504.295 427.928 503.68 426.518 502.93L427.868 497.89C428.888 498.4 429.998 498.85 431.198 499.24C432.398 499.63 433.628 499.93 434.888 500.14C436.148 500.35 437.348 500.455 438.488 500.455C440.648 500.455 442.298 500.08 443.438 499.33C444.608 498.55 445.193 497.44 445.193 496C445.193 495.22 445.013 494.56 444.653 494.02C444.293 493.48 443.753 493.015 443.033 492.625C442.343 492.205 441.473 491.83 440.423 491.5C439.373 491.14 438.173 490.78 436.823 490.42C435.263 490 433.853 489.52 432.593 488.98C431.363 488.41 430.298 487.75 429.398 487C428.498 486.22 427.808 485.32 427.328 484.3C426.848 483.25 426.608 482.05 426.608 480.7C426.608 477.79 427.703 475.57 429.893 474.04C432.083 472.48 435.188 471.7 439.208 471.7C441.248 471.7 443.258 471.895 445.238 472.285C447.248 472.645 448.958 473.14 450.368 473.77L448.973 478.81C447.593 478.15 446.033 477.64 444.293 477.28C442.553 476.89 440.843 476.695 439.163 476.695C436.973 476.695 435.308 477.04 434.168 477.73C433.028 478.42 432.458 479.425 432.458 480.745C432.458 481.495 432.623 482.14 432.953 482.68C433.283 483.22 433.778 483.685 434.438 484.075C435.098 484.465 435.908 484.825 436.868 485.155C437.828 485.485 438.968 485.83 440.288 486.19C441.938 486.67 443.423 487.195 444.743 487.765C446.093 488.305 447.233 488.95 448.163 489.7C449.093 490.45 449.798 491.35 450.278 492.4C450.788 493.42 451.043 494.635 451.043 496.045C451.043 499.015 449.918 501.325 447.668 502.975C445.418 504.625 442.238 505.45 438.128 505.45ZM497.231 505V472.15H502.856V505H497.231ZM477.296 505V472.15H482.921V505H477.296ZM480.086 490.375V485.335H500.066V490.375H480.086ZM530.777 505V472.15H536.627V505H530.777Z" fill="#A27400"/>
<g clip-path="url(#clip0_151_391)">
<mask id="mask0_151_391" style="mask-type:luminance" maskUnits="userSpaceOnUse" x="-123" y="-139" width="794" height="794">
<path d="M-123 -139H671V655H-123V-139Z" fill="white"/>
</mask>
<g mask="url(#mask0_151_391)">
<path d="M187.497 184.739C187.497 174.973 179.579 167.054 169.812 167.054C160.044 167.054 152.125 174.973 152.125 184.739C152.125 194.505 160.044 202.425 169.812 202.425C179.579 202.425 187.497 194.505 187.497 184.739Z" fill="#A27400"/>
</g>
<mask id="mask1_151_391" style="mask-type:luminance" maskUnits="userSpaceOnUse" x="-123" y="-139" width="794" height="794">
<path d="M-123 -139H671V655H-123V-139Z" fill="white"/>
</mask>
<g mask="url(#mask1_151_391)">
<path d="M209.231 239.177L171.96 260.349V217.465C187.154 218.17 201.099 226.296 209.231 239.177ZM270.566 209.707L269.418 207.678C249.103 171.832 210.936 149.564 169.81 149.564C131.036 149.564 94.9131 169.352 73.8786 201.65L77.9495 203.962C98.1489 173.122 132.712 154.232 169.81 154.232C208.48 154.232 244.424 174.76 264.184 207.961L221.004 232.489L213.311 236.859C203.965 221.913 187.509 212.723 169.81 212.723C153.7 212.723 138.651 220.347 129.026 232.976L133.122 235.303C141.373 224.774 153.82 218.198 167.292 217.465V260.255L130.335 239.263C130.355 239.233 130.373 239.201 130.393 239.17L126.315 236.855C126.297 236.885 126.274 236.915 126.255 236.945L83.3755 212.588L75.3845 208.049C75.4032 208.017 75.4232 207.987 75.4419 207.956L71.3937 205.656C70.9762 206.358 70.5547 207.056 70.1519 207.767L69.0048 209.794L127.984 243.297L127.985 243.296L164.983 264.311L147.813 274.066L150.117 278.123L167.292 268.369V282.325H171.96V268.276L189.297 278.123L191.603 274.066L174.433 264.311L213.869 241.911L270.566 209.707Z" fill="#A27400"/>
</g>
<mask id="mask2_151_391" style="mask-type:luminance" maskUnits="userSpaceOnUse" x="-123" y="-139" width="794" height="794">
<path d="M-123 -139H671V655H-123V-139Z" fill="white"/>
</mask>
<g mask="url(#mask2_151_391)">
<path d="M232.71 284.553L232.69 284.244C232.665 284.057 230.188 265.398 230.188 259.565C230.188 256.027 232.928 255.238 233.724 255.085H301.793C302.627 255.248 305.337 256.047 305.337 259.565C305.337 265.398 302.857 284.057 302.833 284.244L302.812 284.553C302.812 290.166 298.541 295.849 290.378 295.849H245.143C236.981 295.849 232.71 290.166 232.71 284.553ZM287.288 305.45H248.233V300.897H287.288V305.45ZM245.899 310.119H289.622C290.912 310.119 291.956 309.074 291.956 307.784V300.444C301.973 299.707 307.402 292.028 307.479 284.715C307.734 282.797 310.005 265.489 310.005 259.565C310.005 253.158 304.964 250.793 302.297 250.437L233.533 250.417L233.224 250.438C230.559 250.793 225.52 253.159 225.52 259.565C225.52 265.489 227.79 282.797 228.043 284.713C228.121 292.028 233.548 299.707 243.565 300.444V307.784C243.565 309.074 244.611 310.119 245.899 310.119Z" fill="#A27400"/>
</g>
<mask id="mask3_151_391" style="mask-type:luminance" maskUnits="userSpaceOnUse" x="-123" y="-139" width="794" height="794">
<path d="M-123 -139H671V655H-123V-139Z" fill="white"/>
</mask>
<g mask="url(#mask3_151_391)">
<path d="M336.555 304.556H324.433V291.399H336.555V304.556ZM318.068 249.646H313.4C313.4 261.049 317.972 275.372 319.266 278.408C319.834 279.743 319.844 280.444 319.797 284.439C319.782 285.672 319.765 287.179 319.765 289.064V306.89C319.765 308.179 320.809 309.224 322.099 309.224H338.889C340.179 309.224 341.224 308.179 341.224 306.89V289.064C341.224 287.191 341.206 285.689 341.193 284.459C341.146 280.448 341.155 279.745 341.724 278.409C343.019 275.376 347.591 261.059 347.591 249.646H342.923C342.923 260.185 338.593 273.85 337.429 276.579C336.46 278.857 336.475 280.282 336.524 284.513C336.531 285.169 336.54 285.902 336.546 286.729H324.443C324.449 285.893 324.457 285.153 324.465 284.493C324.513 280.275 324.529 278.854 323.562 276.579C322.399 273.849 318.068 260.174 318.068 249.646Z" fill="#A27400"/>
</g>
<mask id="mask4_151_391" style="mask-type:luminance" maskUnits="userSpaceOnUse" x="-123" y="-139" width="794" height="794">
<path d="M-123 -139H671V655H-123V-139Z" fill="white"/>
</mask>
<g mask="url(#mask4_151_391)">
<path d="M328.603 249.646H323.934V265.535H328.603V249.646Z" fill="#A27400"/>
</g>
<mask id="mask5_151_391" style="mask-type:luminance" maskUnits="userSpaceOnUse" x="-123" y="-139" width="794" height="794">
<path d="M-123 -139H671V655H-123V-139Z" fill="white"/>
</mask>
<g mask="url(#mask5_151_391)">
<path d="M337.203 249.646H332.535V265.535H337.203V249.646Z" fill="#A27400"/>
</g>
<mask id="mask6_151_391" style="mask-type:luminance" maskUnits="userSpaceOnUse" x="-123" y="-139" width="794" height="794">
<path d="M-123 -139H671V655H-123V-139Z" fill="white"/>
</mask>
<g mask="url(#mask6_151_391)">
<path d="M124.656 308.25C123.821 308.459 123.169 309.111 122.959 309.946L119.69 323L116.42 309.946C116.21 309.111 115.558 308.459 114.723 308.25L101.658 304.972L114.723 301.697C115.558 301.487 116.21 300.835 116.42 300L119.69 286.948L122.959 299.999C123.169 300.835 123.821 301.487 124.657 301.697L137.723 304.972L124.656 308.25ZM127.149 297.508L121.956 276.778C121.695 275.739 120.762 275.011 119.691 275.011C118.62 275.011 117.687 275.739 117.428 276.777L112.231 297.508L91.4943 302.708C90.4553 302.968 89.727 303.9 89.727 304.971C89.727 306.042 90.4553 306.974 91.493 307.235L112.231 312.438L117.427 333.173C117.687 334.211 118.62 334.939 119.691 334.939C120.762 334.939 121.695 334.211 121.956 333.172L127.149 312.438L147.89 307.235C148.928 306.974 149.656 306.042 149.656 304.971C149.656 303.9 148.928 302.968 147.888 302.708L127.149 297.508Z" fill="#A27400"/>
</g>
<mask id="mask7_151_391" style="mask-type:luminance" maskUnits="userSpaceOnUse" x="-123" y="-139" width="794" height="794">
<path d="M-123 -139H671V655H-123V-139Z" fill="white"/>
</mask>
<g mask="url(#mask7_151_391)">
<path d="M306.405 182.932C305.57 183.142 304.918 183.794 304.708 184.629L301.439 197.682L298.168 184.629C297.96 183.794 297.308 183.142 296.473 182.932L283.407 179.654L296.473 176.379C297.308 176.17 297.96 175.518 298.168 174.683L301.439 161.631L304.708 174.683C304.918 175.518 305.57 176.17 306.405 176.379L319.472 179.654L306.405 182.932ZM331.405 179.654C331.405 178.583 330.676 177.65 329.639 177.39L308.896 172.191L303.705 151.459C303.445 150.422 302.511 149.692 301.44 149.692C300.371 149.692 299.437 150.42 299.177 151.459L293.98 172.191L273.243 177.39C272.204 177.65 271.476 178.583 271.476 179.654C271.476 180.724 272.204 181.657 273.243 181.917L293.98 187.121L299.177 207.855C299.437 208.894 300.371 209.622 301.44 209.622C302.511 209.622 303.445 208.893 303.705 207.855L308.896 187.121L329.639 181.917C330.676 181.657 331.405 180.724 331.405 179.654Z" fill="#A27400"/>
</g>
<mask id="mask8_151_391" style="mask-type:luminance" maskUnits="userSpaceOnUse" x="-123" y="-139" width="794" height="794">
<path d="M-123 -139H671V655H-123V-139Z" fill="white"/>
</mask>
<g mask="url(#mask8_151_391)">
<path d="M451.071 134.187L429.141 112.252L446.702 94.6898C452.905 103.353 458.47 112.464 463.327 121.933L451.071 134.187ZM403.902 87.0136L423.531 67.389C430.881 74.7224 437.694 82.58 443.913 90.8777L425.841 108.95L403.902 87.0136ZM400.601 134.186L378.667 112.25L400.601 90.3149L422.538 112.25L400.601 134.186ZM353.43 87.0123L375.367 65.0776L397.301 87.0136L375.366 108.948L353.43 87.0123ZM350.127 134.186L328.195 112.25L350.13 90.3149L372.066 112.25L350.127 134.186ZM302.959 87.0123L324.894 65.0762L346.829 87.015L324.895 108.948L302.959 87.0123ZM299.658 134.186L277.731 112.25L299.659 90.3149L321.594 112.25L299.658 134.186ZM252.493 87.0136L274.427 65.0776L296.358 87.015L274.43 108.948L252.493 87.0136ZM249.193 134.186L227.258 112.25L249.193 90.3149L271.129 112.25L249.193 134.186ZM202.021 87.0136L223.956 65.0762L245.892 87.015L223.958 108.948L202.021 87.0136ZM198.72 134.186L176.785 112.25L198.721 90.3149L220.657 112.25L198.72 134.186ZM151.547 87.0123L173.481 65.0762L195.42 87.015L173.485 108.95L151.547 87.0123ZM148.245 134.186L126.311 112.25L148.249 90.3149L170.182 112.25L148.245 134.186ZM102.779 88.717C109.114 80.4992 116.032 72.7524 123.47 65.539L144.945 87.0163L123.01 108.95L102.779 88.717ZM97.7715 134.186L83.0154 119.428C87.9986 110.01 93.6594 101.004 99.9404 92.4797L119.709 112.25L97.7715 134.186ZM151.202 42.796L170.18 61.7763L148.244 83.7124L126.858 62.3245C134.48 55.2472 142.613 48.7168 151.202 42.796ZM183.37 24.4892L195.418 36.5377L173.481 58.4751L155.147 40.1403C164.112 34.2461 173.54 29.0042 183.37 24.4892ZM220.525 11.4324L198.72 33.2378L187.938 22.4565C198.399 17.9441 209.287 14.2441 220.525 11.4324ZM220.656 61.7763L198.72 83.7124L176.782 61.7763L198.72 39.8389L220.656 61.7763ZM245.892 36.5377L223.957 58.4751L202.019 36.5377L223.957 14.6029L245.892 36.5377ZM229.093 9.46635C240.752 7.05746 252.755 5.61159 265.016 5.18743L271.129 11.3017L249.193 33.2364L227.258 11.3017L229.093 9.46635ZM272.503 5.04337C274.115 5.04337 275.724 5.0647 277.33 5.09938L274.43 8.00044L271.486 5.05538C271.825 5.05405 272.163 5.04337 272.503 5.04337ZM283.694 5.33812C296.284 5.97836 308.671 7.69503 320.759 10.4667L321.594 11.3017L299.659 33.2364L277.731 11.3017L283.694 5.33812ZM299.659 39.8389L321.594 61.7763L299.658 83.7124L277.729 61.7763L299.659 39.8389ZM271.128 61.7763L249.191 83.7124L227.257 61.7763L249.193 39.8389L271.128 61.7763ZM252.494 36.5377L274.43 14.6029L296.36 36.5377L274.427 58.4751L252.494 36.5377ZM346.833 36.5377L324.895 58.4751L302.961 36.5377L324.894 14.6029L346.833 36.5377ZM359.823 23.5462L350.133 33.2378L329.587 12.6928C339.928 15.5379 350.027 19.1606 359.823 23.5462ZM372.069 61.7763L350.127 83.7124L328.195 61.7763L350.133 39.8389L372.069 61.7763ZM392.236 41.6075L375.369 58.4738L353.434 36.5377L364.343 25.6283C373.97 30.2127 383.285 35.5506 392.236 41.6075ZM401.606 48.302C408.108 53.2185 414.307 58.5125 420.188 64.1292L400.601 83.7124L378.667 61.7763L396.136 44.3099C397.974 45.613 399.802 46.9362 401.606 48.302ZM491.721 302.375C491.269 302.078 480.99 295.604 467.057 304.978C465.327 302.092 461.913 297.745 456.74 296.983C455.545 296.81 454.339 296.845 453.126 297.069C453.755 290.201 453.48 284.388 452.247 277.619C453.288 277.044 454.242 276.468 454.994 275.967C455.116 275.886 455.228 275.795 455.332 275.693C479.715 251.887 491.812 214.785 491.38 206.825C491.329 205.888 490.723 205.073 489.842 204.754C485.069 203.031 474.589 202.315 467.256 210.965C464.608 209.412 459.657 207.183 454.633 208.471C451.266 209.332 448.502 211.561 446.39 215.112C443.338 212.894 437.824 209.794 432.578 211.516C431.832 211.76 431.129 212.099 430.461 212.512C429.095 209.906 427.841 207.347 427.263 205.568C437.356 179.173 462.258 175.828 475.69 174.023C480.033 173.44 482.654 173.088 484.112 172.03C484.856 171.49 485.215 170.563 485.025 169.663L482.311 156.699C482.298 156.635 482.28 156.573 482.263 156.51C469.058 112.308 441.415 72.5563 404.422 44.578C366.188 15.6606 320.571 0.374982 272.503 0.374982C151.805 0.374982 53.6099 98.5686 53.6099 219.267C53.6099 258.01 63.8684 296.082 83.2742 329.366C102.106 361.664 129.074 388.794 161.26 407.826C161.632 408.046 162.042 408.15 162.446 408.15C162.728 408.15 163.001 408.082 163.264 407.983C163.292 407.975 163.318 407.959 163.346 407.95C163.43 407.915 163.519 407.89 163.6 407.844C163.635 407.827 163.672 407.819 163.707 407.799C164.842 407.188 165.266 405.773 164.654 404.636C157.946 392.198 150.822 373.784 154.986 356.703C160.1 335.703 181.62 333.381 182.531 333.293C183.73 333.181 184.648 332.174 184.648 330.969V321.374H214.443V330.969C214.443 332.171 215.36 333.177 216.557 333.293C217.47 333.381 238.993 335.703 244.11 356.703C252.111 389.563 218.899 427.563 218.563 427.944C218.542 427.968 218.527 427.996 218.507 428.021C218.456 428.082 218.411 428.148 218.367 428.216C218.324 428.28 218.284 428.344 218.248 428.41C218.215 428.474 218.187 428.541 218.159 428.609C218.127 428.688 218.097 428.765 218.075 428.847C218.065 428.876 218.051 428.901 218.044 428.931C218.033 428.971 218.035 429.011 218.027 429.052C218.012 429.132 217.999 429.212 217.992 429.292C217.985 429.369 217.983 429.446 217.984 429.522C217.985 429.594 217.989 429.664 217.996 429.736C218.005 429.816 218.017 429.894 218.033 429.972C218.048 430.042 218.067 430.108 218.087 430.176C218.111 430.251 218.136 430.324 218.167 430.397C218.195 430.463 218.227 430.527 218.26 430.591C218.299 430.662 218.339 430.729 218.384 430.795C218.423 430.853 218.463 430.907 218.508 430.962C218.564 431.03 218.623 431.094 218.687 431.155C218.714 431.182 218.734 431.213 218.763 431.238C218.775 431.249 218.791 431.252 218.803 431.262C218.992 431.424 219.207 431.554 219.447 431.649C219.486 431.665 219.523 431.677 219.563 431.692C219.626 431.712 219.683 431.741 219.749 431.757C236.91 436.004 254.659 438.157 272.503 438.157C288.382 438.157 313.111 435.828 334.891 429.293C338.267 428.281 348.54 425.199 347.7 419.126C346.026 407.032 299.71 405.227 284.789 404.962C283.169 404.275 282.125 403.368 281.685 402.263C280.999 400.543 281.874 398.667 281.874 398.669C282.181 398.054 282.201 397.33 281.929 396.699C281.378 395.41 281.015 393.462 281.374 392.881C281.429 392.795 281.702 392.721 282.04 392.701C283.938 392.591 285.063 393.164 286.483 393.892C288.143 394.742 290.204 395.797 293.372 395.405C294.812 395.225 296.238 394.851 297.748 394.455C301.57 393.455 305.52 392.421 310.339 394.35C310.957 394.595 311.653 394.57 312.252 394.271C320.063 390.363 324.527 391.205 327.865 392.539C330.012 393.396 332.398 392.688 334.407 390.591C336.666 388.234 338.326 384.085 336.953 381.033C336.406 379.819 334.937 377.79 331.176 377.949C328.369 378.059 325.852 378.657 323.632 379.184C318.779 380.337 317.415 380.399 316.188 378.279C313.167 373.066 311.967 372.286 307.585 372.743C306.962 372.807 306.227 372.885 305.336 372.934C303.928 373.011 302.29 373.313 300.393 373.66C291.603 375.271 284.004 375.992 280.04 368.439C279.895 368.163 279.696 367.917 279.455 367.72C272.493 362.009 267.093 348.86 267.161 337.785C267.197 332.064 268.764 327.675 271.577 325.424C281.203 317.726 296.464 325.831 298.294 327.257C298.704 327.576 299.209 327.749 299.727 327.749C306.048 327.749 314.341 331.707 314.425 331.747C315.189 332.116 316.1 332.039 316.791 331.545C317.089 331.333 346.892 310.516 380.449 318.619C381.448 318.861 382.467 318.428 382.994 317.56C383.584 316.586 397.32 292.987 385.707 231.027C385.59 230.401 385.224 229.852 384.691 229.504C383.773 228.903 362.275 215.357 325.736 236.015C325.344 231.666 326.827 222.325 342.333 210.935C342.998 210.446 343.356 209.642 343.273 208.82C343.189 207.997 342.678 207.281 341.928 206.935C339.444 205.788 338.158 199.825 340.257 194.759C343.16 187.758 350.604 185.873 360.687 189.593C361.516 189.9 362.445 189.712 363.09 189.107C363.734 188.506 363.983 187.591 363.734 186.744C362.799 183.564 364.382 174.886 370.623 170.33C376.521 166.023 384.708 167.186 394.305 173.688C394.933 174.114 395.728 174.207 396.435 173.942C397.145 173.675 397.681 173.081 397.872 172.348C400.794 161.209 409.891 155.912 416.931 156.573C421.991 157.05 425.099 160.331 425.458 165.573C425.545 166.859 426.674 167.809 427.946 167.743C429.233 167.655 430.202 166.54 430.116 165.256C429.601 157.726 424.716 152.618 417.37 151.924C409.076 151.14 398.675 156.586 394.313 168.156C381.407 160.411 372.861 162.914 367.87 166.559C361.866 170.943 359.02 178.521 358.837 184.096C342.883 179.749 337.324 189.646 335.945 192.971C333.588 198.659 334.302 205.283 337.225 208.957C315.559 226.106 321.805 240.01 322.092 240.613C322.375 241.208 322.895 241.656 323.526 241.847C324.154 242.036 324.838 241.954 325.401 241.613C357.003 222.645 377.125 230.837 381.319 232.962C389.525 277.613 384.28 304.309 379.778 313.679C348.224 306.894 321.07 323.132 315.211 326.978C312.563 325.826 306.182 323.312 300.494 323.096C295.597 319.821 279.429 313.163 268.661 321.779C264.671 324.972 262.538 330.496 262.494 337.757C262.418 350.098 268.256 364.284 276.132 371.025C282.096 381.763 294.055 379.57 301.236 378.252C302.977 377.933 304.481 377.657 305.596 377.594C306.573 377.541 307.38 377.457 308.065 377.388C308.844 377.306 309.729 377.216 309.889 377.317C310.439 377.67 311.639 379.736 312.149 380.617C315.247 385.975 320.275 384.781 324.714 383.726C326.823 383.224 329.004 382.706 331.357 382.616C331.635 382.6 332.538 382.598 332.696 382.948C333.026 383.682 332.476 385.86 331.038 387.361C330.36 388.068 329.792 388.278 329.597 388.204C323.836 385.899 318.09 386.338 311.084 389.648C305.275 387.654 300.466 388.916 296.565 389.94C295.208 390.295 293.927 390.631 292.79 390.774C291.067 390.997 290.085 390.492 288.613 389.736C286.975 388.897 284.922 387.862 281.765 388.041C279.283 388.186 278.019 389.424 277.397 390.438C275.953 392.788 276.719 395.966 277.283 397.612C276.836 398.949 276.334 401.375 277.319 403.92C278.281 406.4 280.354 408.266 283.48 409.467C283.735 409.566 284.006 409.618 284.279 409.624C328.17 410.342 342.734 417.309 343.074 419.766C343.137 420.211 341.702 422.378 333.551 424.822C312.253 431.211 288.051 433.488 272.503 433.488C256.301 433.488 240.187 431.652 224.533 428.072C232.456 418.204 255.974 385.697 248.646 355.598C243.741 335.469 225.387 330.208 219.111 328.983V319.039C219.111 317.751 218.067 316.705 216.777 316.705H182.313C181.025 316.705 179.979 317.751 179.979 319.039V328.983C173.704 330.208 155.352 335.469 150.45 355.598C147.334 368.387 149.595 383.507 156.977 399.687C128.414 381.353 104.423 356.371 87.3064 327.014C68.3167 294.444 58.2783 257.186 58.2783 219.267C58.2783 184.978 66.3893 152.553 80.7719 123.787L96.1216 139.138C96.5591 139.576 97.1526 139.821 97.7715 139.821C98.3904 139.821 98.984 139.576 99.4215 139.138L123.01 115.551L146.595 139.138C147.032 139.576 147.626 139.821 148.245 139.821C148.864 139.821 149.459 139.576 149.896 139.138L173.484 115.551L197.068 139.138C197.506 139.576 198.099 139.821 198.72 139.821C199.338 139.821 199.932 139.576 200.369 139.138L223.957 115.551L247.543 139.138C247.98 139.576 248.574 139.821 249.193 139.821C249.812 139.821 250.405 139.576 250.843 139.138L274.43 115.551L298.007 139.138C298.444 139.576 299.038 139.821 299.658 139.821C300.276 139.821 300.871 139.576 301.308 139.138L324.894 115.551L348.478 139.138C348.915 139.576 349.51 139.821 350.127 139.821C350.746 139.821 351.34 139.576 351.779 139.138L375.366 115.551L398.951 139.138C399.388 139.576 399.982 139.821 400.601 139.821C401.22 139.821 401.813 139.576 402.251 139.138L425.838 115.552L449.421 139.138C449.859 139.577 450.453 139.823 451.071 139.823C451.69 139.823 452.284 139.577 452.721 139.138L465.526 126.335C470.431 136.463 474.536 146.973 477.763 157.753L480.041 168.637C478.755 168.901 476.834 169.16 475.068 169.397C461.575 171.209 433.5 174.979 422.616 204.669C422.454 205.108 422.428 205.585 422.541 206.039C423.114 208.333 424.664 211.556 426.974 215.903C425.156 218.512 423.825 222.142 423.004 226.787C422.78 228.056 423.627 229.268 424.896 229.492C426.157 229.724 427.376 228.87 427.601 227.6C428.158 224.454 429.162 220.775 430.959 218.349C431.439 218.085 431.782 217.673 431.979 217.202C432.586 216.64 433.263 216.205 434.025 215.953C438.157 214.586 443.749 218.725 445.548 220.432C446.102 220.959 446.881 221.181 447.623 221.03C448.372 220.878 448.997 220.371 449.301 219.671C450.921 215.935 453.098 213.69 455.77 212.998C460.772 211.709 466.301 215.908 466.352 215.947C466.857 216.34 467.504 216.511 468.136 216.412C468.77 216.315 469.334 215.963 469.701 215.437C475.254 207.454 483.209 208.017 486.618 208.715C485.448 217.755 474.601 250.251 452.229 272.198C451.46 272.7 450.453 273.293 449.368 273.871C449.292 273.879 449.217 273.879 449.141 273.895C448.631 273.999 448.198 274.267 447.876 274.627C447.115 274.992 446.351 275.331 445.628 275.605C445.333 275.715 445.064 275.885 444.837 276.102C441.262 279.529 437.349 278.949 434.883 277.263C432.665 275.749 431.185 272.918 431.112 270.053C431.069 268.378 431.492 266.02 433.756 264.299C434.118 264.023 434.393 263.646 434.544 263.215C434.672 262.852 434.78 262.653 434.835 262.568C435.516 261.473 435.183 260.034 434.089 259.352C432.994 258.668 431.555 259.004 430.873 260.098C430.701 260.371 430.542 260.678 430.396 261.015C427.749 263.279 426.352 266.504 426.445 270.173C426.557 274.556 428.782 278.75 432.25 281.119C434.385 282.577 436.742 283.297 439.099 283.297C442.123 283.296 445.148 282.115 447.714 279.802C447.772 279.778 447.832 279.752 447.889 279.728C448.991 286.317 449.065 291.88 448.222 299.032C446.342 300.178 444.446 301.765 442.542 303.826C440.593 301.826 437.252 299.228 432.945 299.06C428.977 298.889 425.131 300.817 421.536 304.751C419.365 303.36 415.636 301.669 411.533 302.928C406.008 304.617 401.965 310.986 399.512 321.86C399.228 323.117 400.018 324.367 401.276 324.651C402.532 324.935 403.782 324.145 404.066 322.886C406.622 311.554 410.266 308.209 412.873 307.4C416.58 306.252 420.267 309.608 420.296 309.636C420.772 310.087 421.419 310.308 422.07 310.264C422.724 310.216 423.326 309.895 423.732 309.378C426.762 305.52 429.828 303.61 432.741 303.724C437.257 303.884 440.548 308.677 440.577 308.718C440.988 309.336 441.668 309.72 442.41 309.756C443.144 309.78 443.865 309.471 444.332 308.894C447.307 305.224 451.758 300.985 456.047 301.6C461.108 302.332 464.048 309.274 464.076 309.34C464.354 310.015 464.93 310.522 465.635 310.71C466.34 310.895 467.093 310.746 467.668 310.297C476.756 303.23 483.934 304.279 487.223 305.41C470.396 336.494 444.573 365.561 416.068 385.436C415.874 385.569 415.704 385.732 415.56 385.917C412.767 389.509 407.515 391.274 402.791 390.21C400.431 389.679 396.303 387.966 395.016 382.452C393.954 370.242 403.678 366.817 404.093 366.677C405.042 366.357 405.688 365.465 405.688 364.463C405.688 363.173 404.642 362.129 403.354 362.129C403.066 362.129 402.791 362.181 402.535 362.277C401.39 362.681 388.923 367.469 390.381 383.036C390.39 383.134 390.405 383.23 390.426 383.326C391.409 387.747 393.95 391.181 397.608 393.197C390.622 397.991 383.24 402.905 375.63 407.38C374.519 408.034 374.148 409.463 374.801 410.575C375.237 411.315 376.014 411.727 376.816 411.727C377.217 411.727 377.626 411.623 377.996 411.406C386.812 406.22 395.315 400.475 403.22 395.006C404.023 395.117 404.828 395.19 405.631 395.19C410.802 395.19 415.844 392.953 419.017 389.071C448.665 368.326 475.442 337.853 492.512 305.418C493.074 304.351 492.731 303.032 491.721 302.375Z" fill="#A27400"/>
</g>
</g>
<defs>
<clipPath id="clip0_151_391">
<rect width="439" height="438" fill="white" transform="translate(54)"/>
</clipPath>
</defs>
</svg>
