<svg width="534" height="35" viewBox="0 0 534 35" fill="none" xmlns="http://www.w3.org/2000/svg">
<path d="M0.645 34V1.15H6.63L21.345 24.73H21.435V1.15H27.015V34H21.03L6.36 10.42H6.27V34H0.645ZM51.4521 34L63.1071 1.15H70.7121L82.3221 34H76.1571L66.9321 5.92H66.8421L57.6171 34H51.4521ZM57.8421 26.125V21.13H75.9771V26.125H57.8421ZM121.458 34.45C117.738 34.45 114.543 33.775 111.873 32.425C109.203 31.075 107.148 29.14 105.708 26.62C104.298 24.1 103.593 21.085 103.593 17.575C103.593 14.065 104.298 11.05 105.708 8.53C107.118 6.01 109.128 4.075 111.738 2.725C114.378 1.375 117.513 0.7 121.143 0.7C123.153 0.7 125.058 0.924999 126.858 1.375C128.658 1.795 130.263 2.44 131.673 3.31L130.368 8.035C129.108 7.285 127.668 6.715 126.048 6.325C124.428 5.905 122.793 5.695 121.143 5.695C118.713 5.695 116.628 6.16 114.888 7.09C113.178 8.02 111.858 9.37 110.928 11.14C110.028 12.91 109.578 15.055 109.578 17.575C109.578 20.095 110.028 22.24 110.928 24.01C111.858 25.78 113.208 27.13 114.978 28.06C116.778 28.99 118.938 29.455 121.458 29.455C122.778 29.455 124.053 29.335 125.283 29.095C126.513 28.825 127.623 28.435 128.613 27.925L127.848 29.725V19.6H117.408V14.875H133.428V31.885C131.838 32.695 129.978 33.325 127.848 33.775C125.748 34.225 123.618 34.45 121.458 34.45ZM175.568 34.45C172.118 34.45 169.118 33.76 166.568 32.38C164.048 31 162.098 29.05 160.718 26.53C159.338 24.01 158.648 21.025 158.648 17.575C158.648 14.125 159.338 11.14 160.718 8.62C162.098 6.1 164.048 4.15 166.568 2.77C169.118 1.39 172.118 0.7 175.568 0.7C179.048 0.7 182.048 1.39 184.568 2.77C187.088 4.15 189.038 6.1 190.418 8.62C191.798 11.14 192.488 14.125 192.488 17.575C192.488 21.025 191.798 24.01 190.418 26.53C189.038 29.05 187.088 31 184.568 32.38C182.048 33.76 179.048 34.45 175.568 34.45ZM175.568 29.455C177.878 29.455 179.858 28.975 181.508 28.015C183.188 27.055 184.478 25.69 185.378 23.92C186.278 22.15 186.728 20.035 186.728 17.575C186.728 15.115 186.278 13 185.378 11.23C184.478 9.46 183.188 8.095 181.508 7.135C179.858 6.175 177.878 5.695 175.568 5.695C173.228 5.695 171.218 6.175 169.538 7.135C167.888 8.095 166.613 9.46 165.713 11.23C164.843 13 164.408 15.115 164.408 17.575C164.408 20.035 164.843 22.15 165.713 23.92C166.613 25.69 167.888 27.055 169.538 28.015C171.218 28.975 173.228 29.455 175.568 29.455ZM224.809 34V21.85L212.524 1.15H218.914L227.689 16.855H227.779L236.554 1.15H242.899L230.659 21.85V34H224.809ZM259.586 34L271.241 1.15H278.846L290.456 34H284.291L275.066 5.92H274.976L265.751 34H259.586ZM265.976 26.125V21.13H284.111V26.125H265.976ZM314.717 34L318.767 1.15H325.652L332.627 23.695H332.717L339.737 1.15H346.622L350.672 34H344.957L342.617 9.475H342.527L335.597 30.4H329.792L322.862 9.475H322.772L320.432 34H314.717ZM376.492 34V1.15H398.452V6.01H382.117V14.47H397.552V19.24H382.117V29.14H398.452V34H376.492ZM435.128 34.45C432.968 34.45 430.838 34.225 428.738 33.775C426.668 33.295 424.928 32.68 423.518 31.93L424.868 26.89C425.888 27.4 426.998 27.85 428.198 28.24C429.398 28.63 430.628 28.93 431.888 29.14C433.148 29.35 434.348 29.455 435.488 29.455C437.648 29.455 439.298 29.08 440.438 28.33C441.608 27.55 442.193 26.44 442.193 25C442.193 24.22 442.013 23.56 441.653 23.02C441.293 22.48 440.753 22.015 440.033 21.625C439.343 21.205 438.473 20.83 437.423 20.5C436.373 20.14 435.173 19.78 433.823 19.42C432.263 19 430.853 18.52 429.593 17.98C428.363 17.41 427.298 16.75 426.398 16C425.498 15.22 424.808 14.32 424.328 13.3C423.848 12.25 423.608 11.05 423.608 9.7C423.608 6.79 424.703 4.57 426.893 3.04C429.083 1.48 432.188 0.7 436.208 0.7C438.248 0.7 440.258 0.894999 442.238 1.285C444.248 1.645 445.958 2.14 447.368 2.77L445.973 7.81C444.593 7.15 443.033 6.64 441.293 6.28C439.553 5.89 437.843 5.695 436.163 5.695C433.973 5.695 432.308 6.04 431.168 6.73C430.028 7.42 429.458 8.425 429.458 9.745C429.458 10.495 429.623 11.14 429.953 11.68C430.283 12.22 430.778 12.685 431.438 13.075C432.098 13.465 432.908 13.825 433.868 14.155C434.828 14.485 435.968 14.83 437.288 15.19C438.938 15.67 440.423 16.195 441.743 16.765C443.093 17.305 444.233 17.95 445.163 18.7C446.093 19.45 446.798 20.35 447.278 21.4C447.788 22.42 448.043 23.635 448.043 25.045C448.043 28.015 446.918 30.325 444.668 31.975C442.418 33.625 439.238 34.45 435.128 34.45ZM494.231 34V1.15H499.856V34H494.231ZM474.296 34V1.15H479.921V34H474.296ZM477.086 19.375V14.335H497.066V19.375H477.086ZM527.777 34V1.15H533.627V34H527.777Z" fill="black"/>
</svg>
