<svg width="140" height="128" viewBox="0 0 140 128" fill="none" xmlns="http://www.w3.org/2000/svg">
<path d="M40.262 50.8205C46.0742 50.8205 50.7853 46.1073 50.7853 40.2973L54.6276 0.0352783H37.7924L29.7385 40.2973C29.7388 46.1073 34.4499 50.8205 40.262 50.8205Z" fill="#4B4B4B"/>
<path d="M70.0011 50.8205C75.8111 50.8205 80.5222 46.1073 80.5222 40.2973L78.4197 0.0352783H61.5826L59.4779 40.2973C59.4776 46.1073 64.189 50.8205 70.0011 50.8205Z" fill="#4B4B4B"/>
<path d="M99.7399 50.8206C105.55 50.8206 110.261 46.1073 110.261 40.2973L102.209 0.0350342H85.3743L89.2166 40.2971C89.2166 46.1073 93.9277 50.8206 99.7399 50.8206Z" fill="#4B4B4B"/>
<path d="M125.999 0.0350342H109.164L118.955 40.2971C118.955 45.2157 122.344 49.3128 126.906 50.4657V119.161H111.047V72.68H71.044V119.161H13.0966V50.4659C17.6561 49.3131 21.0465 45.2157 21.0465 40.2973L30.8358 0.035308H14.0005L0 40.2973C0 43.7664 1.70023 46.8188 4.29242 48.7367V127.965H135.71V48.7367C138.299 46.8188 140 43.7664 140 40.2973L125.999 0.0350342ZM104.445 119.161H77.6461V79.2841H104.445V119.161Z" fill="#4B4B4B"/>
<path d="M53.3151 69.5612H29.9152V92.9611H53.3151V69.5612Z" fill="#4B4B4B"/>
</svg>
